<svg width="35" height="54" viewBox="0 0 35 54" fill="none" xmlns="http://www.w3.org/2000/svg">
<g clip-path="url(#clip0_3_16)">
<path fill-rule="evenodd" clip-rule="evenodd" d="M11.9998 46.1269L11.9999 9.93658C11.9871 9.28936 12.1042 8.64614 12.3443 8.04498C12.5845 7.44382 12.9427 6.89692 13.3979 6.43665C13.8531 5.97638 14.396 5.61208 14.9945 5.36532C15.5929 5.11855 16.2348 4.99433 16.8821 5H24.2698C24.0627 4.15287 23.5801 3.39853 22.8977 2.85551C22.2154 2.31249 21.3719 2.01156 20.4999 2H3.9C2.86566 2 1.87368 2.41089 1.14228 3.14228C0.410892 3.87368 0 4.86566 0 5.9V46.0999C0 47.1343 0.410892 48.1262 1.14228 48.8576C1.87368 49.589 2.86566 49.9999 3.9 49.9999H13.9208C13.3155 49.5538 12.8255 48.9696 12.4914 48.296C12.1572 47.6224 11.9887 46.8787 11.9998 46.1269ZM10 9.5C10 9.8283 9.93534 10.1534 9.8097 10.4567C9.68406 10.76 9.49991 11.0356 9.26777 11.2678C9.03562 11.4999 8.76002 11.6841 8.45671 11.8097C8.15339 11.9353 7.8283 12 7.5 12H4.5C3.83696 12 3.20107 11.7366 2.73223 11.2678C2.26339 10.7989 2 10.163 2 9.5V6.5C2 5.83696 2.26339 5.20107 2.73223 4.73223C3.20107 4.26339 3.83696 4 4.5 4H7.5C8.16304 4 8.79893 4.26339 9.26777 4.73223C9.73661 5.20107 10 5.83696 10 6.5V9.5ZM30.177 20H17.823C17.3282 20.0124 16.8586 20.2203 16.5169 20.5783C16.1752 20.9363 15.9893 21.4152 16 21.91V45.09C15.9893 45.5848 16.1752 46.0637 16.5169 46.4217C16.8586 46.7797 17.3283 46.9876 17.8231 47H30.1769C30.6717 46.9876 31.1414 46.7797 31.4831 46.4217C31.8248 46.0637 32.0107 45.5848 32 45.09V21.91C32.0107 21.4152 31.8248 20.9363 31.4831 20.5783C31.1414 20.2203 30.6718 20.0124 30.177 20ZM16.8829 6.00964H31.1171C31.6284 6.00997 32.1346 6.1112 32.6066 6.30752C33.0787 6.50385 33.5073 6.79141 33.8681 7.15372C34.2288 7.51603 34.5144 7.94596 34.7087 8.41889C34.9029 8.89181 35.0019 9.39842 35 9.90967V46.1008C35.0019 46.6119 34.9029 47.1184 34.7087 47.5912C34.5145 48.064 34.2289 48.4939 33.8683 48.8561C33.5077 49.2183 33.0791 49.5058 32.6071 49.7021C32.1352 49.8984 31.6291 49.9996 31.118 49.9999H16.8828C15.853 49.9999 14.8654 49.5909 14.1373 48.8627C13.4091 48.1345 13 47.1469 13 46.1171L13.0001 9.89246C13.0001 9.38256 13.1005 8.87765 13.2957 8.40657C13.4908 7.93548 13.7768 7.50744 14.1374 7.14689C14.4979 6.78633 14.926 6.50033 15.397 6.3052C15.8681 6.11007 16.373 6.00964 16.8829 6.00964ZM15.7322 8.73223C15.2634 9.20107 15 9.83696 15 10.5V13.5C15 14.163 15.2634 14.7989 15.7322 15.2678C16.2011 15.7366 16.837 16 17.5 16H20.5C21.163 16 21.7989 15.7366 22.2678 15.2678C22.7366 14.7989 23 14.163 23 13.5V10.5C23 9.83696 22.7366 9.20107 22.2678 8.73223C21.7989 8.26339 21.163 8 20.5 8H17.5C16.837 8 16.2011 8.26339 15.7322 8.73223ZM32.191 47.1295C32.7203 46.5838 33.0113 45.8502 33 45.09V21.91C33.0114 21.1498 32.7204 20.4162 32.191 19.8705C31.6616 19.3248 30.9372 19.0117 30.177 19H17.823C17.0628 19.0117 16.3384 19.3248 15.809 19.8705C15.2796 20.4162 14.9886 21.1498 15 21.91V45.09C14.9886 45.8502 15.2797 46.5838 15.809 47.1295C16.3384 47.6752 17.0629 47.9883 17.8231 48H30.1769C30.9371 47.9883 31.6616 47.6752 32.191 47.1295Z" fill="#333333"/>
</g>
<defs>
<clipPath id="clip0_3_16">
<rect width="35" height="54" fill="white"/>
</clipPath>
</defs>
</svg>
