<svg width="48" height="54" viewBox="0 0 48 54" fill="none" xmlns="http://www.w3.org/2000/svg">
<g clip-path="url(#clip0_1_2)">
<path d="M11.8918 48.2747C11.9202 48.7021 12.0961 49.1063 12.3894 49.4185C12.6828 49.7306 13.0754 49.9311 13.5002 49.986H15.34C15.8175 49.9285 16.2563 49.6948 16.5705 49.3307C16.8847 48.9666 17.0516 48.4982 17.0386 48.0175V37.1198C15.4035 37.7807 13.6554 38.1172 11.8918 38.1105V48.2747ZM16.6897 20.3938C14.6403 20.3655 12.6276 20.9381 10.8999 22.0408C9.23093 22.9658 7.76512 24.2172 6.58976 25.7205C7.57384 25.9683 8.50027 26.4053 9.3174 27.007C10.2031 27.6079 10.9526 28.3882 11.5175 29.2973C12.3536 30.4346 12.8971 31.7601 13.1001 33.157C13.2467 33.922 13.2467 34.7079 13.1001 35.4729C13.0505 35.7851 12.9685 36.0912 12.8556 36.3864C14.343 36.2643 15.8041 35.9217 17.1909 35.37L17.5512 35.1641C18.659 34.4796 19.6862 33.6726 20.6134 32.7581L20.742 32.6039C21.9159 31.4241 22.6435 29.8733 22.8007 28.2164C22.8925 26.3842 22.3719 24.5735 21.3211 23.0697C19.314 20.6509 17.6155 20.3934 16.7021 20.3934L16.6897 20.3938ZM19.4992 25.8491L16.7202 27.8562C16.4809 28.0321 16.1816 28.1058 15.888 28.0612C15.5944 28.0166 15.3306 27.8573 15.1544 27.6182V27.6118C14.9798 27.3548 14.9081 27.0417 14.9534 26.7343C14.9986 26.427 15.1576 26.1478 15.3988 25.952L18.1264 23.9321C18.3812 23.78 18.6838 23.7292 18.9743 23.7897C19.2648 23.8503 19.5219 24.0178 19.6946 24.2591C19.8674 24.5003 19.9432 24.7977 19.907 25.0922C19.8708 25.3867 19.7252 25.6569 19.4992 25.8491ZM12.0189 33.5688C11.7678 32.1584 11.1711 30.8322 10.282 29.7089C9.81373 28.9583 9.21194 28.2999 8.5064 27.7662C7.92254 27.3265 7.23613 27.0431 6.51214 26.9427C5.95065 26.8496 5.37421 26.9211 4.85248 27.1486C3.59464 27.7369 2.59687 28.7669 2.04891 30.0429C1.79391 30.6572 1.64136 31.3091 1.59733 31.9728C1.573 32.493 1.62942 33.0138 1.76457 33.5167C1.83066 33.7534 1.91234 33.9855 2.00907 34.2115C2.24271 34.7448 2.5362 35.2498 2.88389 35.7168C3.30372 36.3435 3.82057 36.8995 4.41507 37.3638C5.45107 38.1438 6.73812 38.5148 8.03036 38.406C8.74341 38.3765 9.4415 38.1921 10.0761 37.8656C10.6904 37.6105 11.2021 37.1577 11.53 36.5789C12.0409 35.6731 12.2141 34.6155 12.0189 33.594V33.5688ZM5.89974 36.3994C5.43953 36.2951 5.00565 36.0973 4.62498 35.8185C4.24432 35.5396 3.92498 35.1855 3.68678 34.7782C3.40576 34.417 3.19958 34.0034 3.08029 33.5615C2.961 33.1197 2.93099 32.6585 2.99203 32.205C3.17211 31.6132 3.85401 31.626 4.27859 32.205L6.38862 35.1127C6.71159 35.7174 6.46709 36.4508 5.90107 36.3994H5.89974ZM36.1117 38.0976C34.3489 38.1088 32.6008 37.7766 30.965 37.1198V48.0175C30.9519 48.4985 31.119 48.967 31.4335 49.3311C31.748 49.6953 32.1872 49.9288 32.6649 49.986H34.5047C34.925 49.9314 35.3139 49.7343 35.6063 49.4275C35.8988 49.1207 36.0772 48.7229 36.1117 48.3005V38.0976ZM34.8251 35.5116C34.6862 34.7675 34.6862 34.0041 34.8251 33.26C35.0274 31.8629 35.571 30.5372 36.4076 29.4002C36.9826 28.4455 37.7599 27.6286 38.6849 27.007C39.502 26.4053 40.4285 25.9683 41.4125 25.7205C40.2369 24.2175 38.7711 22.9662 37.1024 22.0408C35.3715 20.9359 33.3544 20.3632 31.3011 20.3938C30.3747 20.3938 28.7279 20.6383 26.6564 23.0701C25.6051 24.5736 25.0845 26.3845 25.1768 28.2168C25.3334 29.8738 26.0612 31.4248 27.2355 32.6042L27.3642 32.7585C28.2908 33.6735 29.3181 34.4807 30.4263 35.1645L30.7866 35.3704C32.1733 35.9223 33.6344 36.2648 35.1219 36.3868C34.9945 36.1101 34.8954 35.8213 34.8261 35.5248L34.8251 35.5116ZM32.8675 27.5988C32.7813 27.7179 32.6725 27.8189 32.5472 27.8959C32.422 27.973 32.2828 28.0246 32.1376 28.0478C31.9924 28.0711 31.8441 28.0655 31.7011 28.0314C31.558 27.9972 31.4231 27.9353 31.304 27.849L28.5057 25.8496C28.2762 25.6601 28.1268 25.3909 28.0874 25.096C28.0479 24.801 28.1213 24.5021 28.293 24.259C28.4646 24.0159 28.7217 23.8466 29.0128 23.785C29.304 23.7234 29.6076 23.7741 29.863 23.9269L32.5906 25.9469C32.8404 26.1167 33.0129 26.3782 33.0708 26.6746C33.1286 26.971 33.067 27.2783 32.8994 27.5294L32.8675 27.5988ZM45.9157 30.0949C45.3683 28.8404 44.3858 27.826 43.1495 27.2386C42.6279 27.0114 42.0517 26.9399 41.4904 27.0327C40.7663 27.1326 40.0798 27.4161 39.4962 27.8562C38.7898 28.3891 38.1878 29.0476 37.72 29.7987C36.8299 30.9214 36.233 32.2479 35.9831 33.6586C35.7774 34.677 35.9417 35.7353 36.4463 36.6435C36.7735 37.2228 37.2853 37.6758 37.9001 37.9302C38.5473 38.2388 39.2545 38.4014 39.9716 38.4062C41.2579 38.5155 42.5396 38.1492 43.574 37.3769C44.1737 36.9095 44.6949 36.3494 45.1181 35.7178C45.4605 35.2497 45.7496 34.7447 45.98 34.2124C46.0757 33.9861 46.1574 33.7541 46.2245 33.5177C46.3633 33.0153 46.4241 32.4945 46.4046 31.9737C46.347 31.3246 46.1817 30.6897 45.9157 30.0949ZM44.3183 34.8299C44.0722 35.2384 43.7458 35.5927 43.3588 35.8714C42.9718 36.1501 42.5322 36.3473 42.0667 36.4511C41.5007 36.4511 41.2562 35.7692 41.6293 35.1644L43.7393 32.257C44.1125 31.6394 44.7944 31.6266 45.026 32.257C45.0845 32.7114 45.0521 33.1728 44.9306 33.6144C44.8091 34.0561 44.601 34.4694 44.3183 34.8299Z" fill="#1D1D1F"/>
</g>
<defs>
<clipPath id="clip0_1_2">
<rect width="48" height="54" fill="white"/>
</clipPath>
</defs>
</svg>
