<svg width="40" height="54" viewBox="0 0 40 54" fill="none" xmlns="http://www.w3.org/2000/svg">
<g clip-path="url(#clip0_3_2)">
<path d="M5.37361 38.0182C5.61583 38.0732 5.86907 38.1173 6.11129 38.1503C7.58667 38.3815 9.11709 38.4366 10.5925 38.4145H29.42C30.8954 38.4256 32.4258 38.3815 33.9012 38.1503C34.1544 38.1063 34.3966 38.0622 34.6388 38.0182C36.0592 37.7099 37.3914 37.1814 38.1291 36.3116C38.5695 35.7831 38.7897 35.1335 38.6906 34.3408C38.6576 33.9444 38.5915 33.57 38.5034 33.1957C38.4154 32.8213 38.3163 32.436 38.2282 32.0396C37.8538 30.4762 37.0501 27.2061 36.8079 26.2923C36.5877 25.4665 36.4555 25.0481 36.3234 24.6848C35.6628 23.1654 33.8681 22.4607 31.9744 22.1524C30.2788 21.8992 27.9336 21.9212 26.0508 21.9102H13.6643C11.7816 21.9212 9.71164 21.8882 8.01607 22.1524C6.1223 22.4717 4.32763 23.1654 3.66702 24.6848C3.52389 25.0481 3.39176 25.4665 3.18257 26.2923C2.94034 27.1951 2.1476 30.4762 1.76225 32.0396C1.66315 32.436 1.56406 32.8213 1.48699 33.1957C1.39891 33.57 1.33285 33.9444 1.29982 34.3408C1.20072 35.1445 1.42093 35.7941 1.86134 36.3116C2.61004 37.1924 3.94227 37.7209 5.37361 38.0182ZM23.7497 28.4613L25.2031 30.4982H25.2251L26.3812 28.4613H27.4602L25.8196 31.0157H24.6746L22.6597 28.4613H23.7497ZM19.2685 28.4613H20.0393V27.8667H21.0852L21.0962 28.4503H22.0982L22.1092 28.8466H21.0962L21.1183 30.289C21.1183 30.5092 21.3275 30.6193 21.7789 30.6193C21.9 30.6193 22.0321 30.6083 22.1532 30.6083L22.1642 31.0267C21.966 31.0377 21.7569 31.0487 21.5477 31.0487C20.4687 31.0487 20.0503 30.8505 20.0503 30.344V28.8577H19.2575L19.2685 28.4613V28.4613ZM16.1196 27.7016C16.4059 27.5474 16.8022 27.4594 17.2206 27.4373C17.2427 27.6355 17.0995 27.8337 16.8133 27.9878C16.538 28.142 16.1196 28.2411 15.6902 28.2301C15.6792 28.0429 15.8333 27.8557 16.1196 27.7016V27.7016ZM12.9266 28.7365C13.268 28.4723 13.8625 28.2961 14.5121 28.2961C14.9966 28.2961 15.437 28.4503 15.7342 28.4503C16.0315 28.4503 16.56 28.2741 17.1766 28.2851C17.7161 28.2961 18.2226 28.4283 18.5308 28.6374C18.0354 28.7806 17.7161 29.0338 17.6941 29.3201C17.6831 29.6394 18.0794 29.9367 18.696 30.0578C18.5749 30.2449 18.3877 30.4211 18.1565 30.5863C17.8262 30.8285 17.4629 31.0487 16.9564 31.0487C16.4389 31.0487 16.2737 30.8945 15.6902 30.8945C15.1067 30.8945 14.9305 31.0377 14.413 31.0487C13.8955 31.0597 13.5322 30.7955 13.2239 30.5752C12.5963 30.1018 12.2 29.276 12.9266 28.7365ZM38.7236 37.1043V44.7124C38.7236 49.3697 33.2075 49.3807 29.486 49.4468H10.5154C6.80494 49.3697 1.28881 49.3587 1.28881 44.7014V37.1153C1.28881 37.0933 1.31083 37.0933 1.32184 37.1043C1.9274 37.9081 3.05044 38.6458 5.14239 39.0972C6.49665 39.3834 8.11516 39.5266 10.097 39.5266H29.8934C31.8753 39.5266 33.5048 39.3834 34.859 39.0972C36.962 38.6458 38.085 37.8971 38.6796 37.0823C38.7016 37.0713 38.7236 37.0823 38.7236 37.1043V37.1043Z" fill="#1D1D1F"/>
</g>
<defs>
<clipPath id="clip0_3_2">
<rect width="40" height="54" fill="white"/>
</clipPath>
</defs>
</svg>
