<svg width="40" height="54" viewBox="0 0 40 54" fill="none" xmlns="http://www.w3.org/2000/svg">
<path fill-rule="evenodd" clip-rule="evenodd" d="M20.0003 20.7449C16.2665 20.7449 12.904 22.3993 10.5813 25.0595C9.99249 25.7244 8.96737 25.8056 8.29261 25.2055C7.61948 24.6215 7.55136 23.5996 8.14015 22.9184C11.0452 19.6095 15.2786 17.5008 20.0003 17.5008C28.7057 17.5008 35.7226 24.6215 35.8929 33.3966L36.6829 32.5857C37.3089 31.9529 38.3357 31.9368 38.9764 32.5694C39.617 33.1858 39.6284 34.2076 39.0023 34.8564L35.4339 38.5059C35.1289 38.8142 34.7104 38.9925 34.2741 38.9925C33.8378 38.9925 33.4193 38.8142 33.1144 38.5059L29.546 34.8564C28.9198 34.2076 28.9312 33.1858 29.5719 32.5694C30.2126 31.9368 31.2394 31.9529 31.8654 32.5857L32.6472 33.3804C32.4753 26.3408 26.8453 20.7449 20.0003 20.7449ZM5.72589 28.4494C6.16222 28.4494 6.5807 28.6279 6.88564 28.936L10.4541 32.5857C11.0802 33.2344 11.0688 34.2563 10.4281 34.8727C9.78743 35.5053 8.76069 35.489 8.13459 34.8564L7.35278 34.0617C7.52472 41.1012 13.1548 46.6972 19.9997 46.6972C23.7335 46.6972 27.0961 45.0427 29.4187 42.3826C30.0076 41.7177 31.0326 41.6365 31.7074 42.2366C32.3806 42.8205 32.4487 43.8424 31.8598 44.5236C28.9549 47.8325 24.7214 49.9412 19.9997 49.9412C11.2943 49.9412 4.27743 42.8205 4.10712 34.0455L3.31721 34.8564C2.69111 35.489 1.66436 35.5053 1.02366 34.8727C0.382975 34.2563 0.37161 33.2344 0.997712 32.5857L4.56616 28.936C4.87109 28.6279 5.28958 28.4494 5.72589 28.4494Z" fill="#1D1D1F"/>
</svg>
